# xmcd
#
# Track frame offsets:
#	150
#	10200
#	25374
#	38799
#	49524
#	65680
#	83980
#	95455
#	116033
#	131408
#	141158
#	155103
#	166953
#	177919
#	192469
#
# Disc length: 2754 seconds
# Revision: 0
# Processed by: cddbd v1.5.2PL0 Copyright (c) Steve Scherf et al.
# Submitted via: dBpowerAMP V12.0
#
DISCID=cf0ac00f
DTITLE=The High Country Cowboys - Songs of The High Country Cowboys
DYEAR=2015
DGENRE=Country
TTITLE0=Roll Along
TTITLE1=Lawman
TTITLE2=Dreamy Moon
TTITLE3=Song of the Homecoming Cowboy
TTITLE4=Wild Mustang Stallion
TTITLE5=Montana Trail
TTITLE6=How I Learned to Yodel
TTITLE7=The Deputy
TTITLE8=Sante Fe
TTITLE9=The RoundUp
TTITLE10=Rosita
TTITLE11=The Horse Race
TTITLE12=Whoopi Ti Yi Yodel
TTITLE13=Old Cold Coffee
TTITLE14=Stampede
EXTD=
EXTT0=
EXTT1=
EXTT2=
EXTT3=
EXTT4=
EXTT5=
EXTT6=
EXTT7=
EXTT8=
EXTT9=
EXTT10=
EXTT11=
EXTT12=
EXTT13=
EXTT14=
PLAYORDER=
